# Blender 4.1.1
# www.blender.org
o combatknife1
v -0.003498 -0.011610 0.017981
v -0.003498 -0.023126 0.017981
v 0.023691 -0.011610 0.000000
v 0.019566 -0.023126 0.000000
v -0.026562 -0.023126 0.000000
v -0.030688 -0.011610 0.000000
v -0.003498 -0.188510 0.017981
v -0.003498 -0.200025 0.017981
v 0.019098 -0.188510 0.000000
v 0.019098 -0.200025 0.000000
v -0.026095 -0.200025 0.000000
v -0.026095 -0.188510 0.000000
v -0.003498 -0.017371 0.015609
v -0.003498 -0.193671 0.015609
v 0.016078 -0.017371 0.000000
v 0.016078 -0.193671 0.000000
v -0.023074 -0.193671 0.000000
v -0.023074 -0.017371 0.000000
v -0.003394 0.165238 0.008233
v -0.003394 -0.014772 0.009154
v 0.017399 0.155781 0.000000
v 0.018223 -0.014772 0.000000
v -0.025010 -0.014772 0.000000
v -0.025010 0.165238 0.000000
v -0.001183 0.212457 0.004555
v -0.003124 0.216605 0.000000
v 0.011882 0.230304 0.000000
v -0.015778 0.199729 0.000000
v -0.003498 -0.011610 -0.017981
v -0.003498 -0.023126 -0.017981
v -0.003498 -0.188510 -0.017981
v -0.003498 -0.200025 -0.017981
v -0.003498 -0.017371 -0.015609
v -0.003498 -0.193671 -0.015609
v -0.003394 0.165238 -0.008233
v -0.003394 -0.014772 -0.009154
v -0.001183 0.212457 -0.004555
vn -0.0000 0.5877 0.8091
vn -0.0000 -0.5914 0.8064
vn 0.9010 0.4339 -0.0000
vn 0.7351 -0.6779 -0.0000
vn -0.7351 -0.6779 -0.0000
vn -0.9010 0.4339 -0.0000
vn -0.0000 0.5902 0.8072
vn -0.0000 -0.5902 0.8072
vn 0.8241 0.5664 -0.0000
vn 0.8241 -0.5664 -0.0000
vn -0.8241 -0.5664 -0.0000
vn -0.8241 0.5664 -0.0000
vn -0.0000 -0.0000 1.0000
vn 1.0000 -0.0000 -0.0000
vn -1.0000 -0.0000 -0.0000
vn 0.0069 0.0442 0.9990
vn -0.0009 0.0037 1.0000
vn 0.9986 0.0526 -0.0000
vn 1.0000 0.0048 -0.0000
vn -0.9999 0.0112 -0.0000
vn -0.9926 0.1214 -0.0000
vn -0.1864 0.2703 0.9446
vn -0.7298 0.6836 -0.0000
vn 0.4419 0.8971 -0.0000
vn -0.9484 0.3169 -0.0000
vn -0.0000 0.5877 -0.8091
vn -0.0000 -0.5914 -0.8064
vn -0.0000 0.5902 -0.8072
vn -0.0000 -0.5902 -0.8072
vn -0.0000 -0.0000 -1.0000
vn 0.0069 0.0442 -0.9990
vn -0.0009 0.0037 -1.0000
vn -0.1864 0.2703 -0.9446
vt 0.734375 0.125000
vt 0.890625 0.125000
vt 0.812500 0.171875
vt 0.906250 0.171875
vt 0.812500 0.125000
vt 0.906250 0.125000
vt 0.609375 0.625000
vt 0.500000 0.046875
vt 0.609375 0.046875
vt 0.500000 0.625000
vt 0.250000 0.656250
vt 0.203125 0.109375
vt 0.250000 0.109375
vt 0.203125 0.843750
vt 0.203125 0.890625
vt 0.171875 0.828125
vt 0.203125 0.687500
vt 0.156250 0.109375
vt 0.250000 0.937500
vt 0.156250 0.687500
s 1
f 5/1/5 4/2/4 2/3/2
f 4/4/4 1/5/1 2/3/2
f 3/1/3 6/2/6 1/3/1
f 1/5/1 5/4/5 2/3/2
f 11/1/11 10/2/10 8/3/8
f 9/6/9 8/3/8 10/4/10
f 9/1/9 12/2/12 7/3/7
f 7/5/7 11/4/11 8/3/8
f 15/7/14 14/8/13 16/9/14
f 13/10/13 17/9/15 14/8/13
f 21/11/18 20/12/17 22/13/19
f 25/14/22 26/15/23 28/16/25
f 19/17/16 23/18/20 20/12/17
f 27/19/24 26/15/23 25/14/22
f 21/11/18 25/14/22 19/17/16
f 19/17/16 28/16/25 24/20/21
f 5/1/5 30/3/27 4/2/4
f 4/4/4 29/5/26 3/6/3
f 3/1/3 29/3/26 6/2/6
f 5/4/5 29/5/26 30/3/27
f 11/1/11 32/3/29 10/2/10
f 32/3/29 9/6/9 10/4/10
f 9/1/9 31/3/28 12/2/12
f 11/4/11 31/5/28 32/3/29
f 34/8/30 15/7/14 16/9/14
f 17/9/15 33/10/30 34/8/30
f 36/12/32 21/11/18 22/13/19
f 37/14/33 28/16/25 26/15/23
f 23/18/20 35/17/31 36/12/32
f 27/19/24 37/14/33 26/15/23
f 37/14/33 21/11/18 35/17/31
f 28/16/25 35/17/31 24/20/21
f 4/4/4 3/6/3 1/5/1
f 1/5/1 6/6/6 5/4/5
f 9/6/9 7/5/7 8/3/8
f 7/5/7 12/6/12 11/4/11
f 15/7/14 13/10/13 14/8/13
f 13/10/13 18/7/15 17/9/15
f 21/11/18 19/17/16 20/12/17
f 19/17/16 24/20/21 23/18/20
f 21/11/18 27/19/24 25/14/22
f 19/17/16 25/14/22 28/16/25
f 4/4/4 30/3/27 29/5/26
f 5/4/5 6/6/6 29/5/26
f 32/3/29 31/5/28 9/6/9
f 11/4/11 12/6/12 31/5/28
f 34/8/30 33/10/30 15/7/14
f 17/9/15 18/7/15 33/10/30
f 36/12/32 35/17/31 21/11/18
f 23/18/20 24/20/21 35/17/31
f 37/14/33 27/19/24 21/11/18
f 28/16/25 37/14/33 35/17/31
